<svg width="128" height="128" viewBox="0 0 128 128" fill="none" xmlns="http://www.w3.org/2000/svg">
<path d="M112 27H16C11.5817 27 8 30.5817 8 35V107C8 111.418 11.5817 115 16 115H112C116.418 115 120 111.418 120 107V35C120 30.5817 116.418 27 112 27Z" fill="#6F6F6F"/>
<path d="M111.5 28H16.5C12.3579 28 9 31.3579 9 35.5V103.5C9 107.642 12.3579 111 16.5 111H111.5C115.642 111 119 107.642 119 103.5V35.5C119 31.3579 115.642 28 111.5 28Z" fill="#DEDEDE"/>
<path d="M114 32H14C13.4477 32 13 32.4477 13 33V100C13 100.552 13.4477 101 14 101H114C114.552 101 115 100.552 115 100V33C115 32.4477 114.552 32 114 32Z" fill="#48B9C7"/>
<path d="M99.0311 73H28.9689C25.9876 73 24 75.0444 24 78.1111V90.8889C24 93.9556 25.9876 96 28.9689 96H99.0311C102.012 96 104 93.9556 104 90.8889V78.1111C104 75.0444 102.012 73 99.0311 73Z" fill="#39949E"/>
<path d="M99.0311 71H28.9689C25.9876 71 24 73.0444 24 76.1111V88.8889C24 91.9556 25.9876 94 28.9689 94H99.0311C102.012 94 104 91.9556 104 88.8889V76.1111C104 73.0444 102.012 71 99.0311 71Z" fill="white"/>
<path d="M41.8644 76H32.1356C30.9561 76 30 76.9561 30 78.1356V87.8644C30 89.0439 30.9561 90 32.1356 90H41.8644C43.0439 90 44 89.0439 44 87.8644V78.1356C44 76.9561 43.0439 76 41.8644 76Z" fill="#39949E"/>
<path d="M59.8644 76H50.1356C48.9561 76 48 76.9561 48 78.1356V87.8644C48 89.0439 48.9561 90 50.1356 90H59.8644C61.0439 90 62 89.0439 62 87.8644V78.1356C62 76.9561 61.0439 76 59.8644 76Z" fill="#39949E"/>
<path d="M77.8644 76H68.1356C66.9561 76 66 76.9561 66 78.1356V87.8644C66 89.0439 66.9561 90 68.1356 90H77.8644C79.0439 90 80 89.0439 80 87.8644V78.1356C80 76.9561 79.0439 76 77.8644 76Z" fill="#39949E"/>
<path d="M95.8644 76H86.1356C84.9561 76 84 76.9561 84 78.1356V87.8644C84 89.0439 84.9561 90 86.1356 90H95.8644C97.0439 90 98 89.0439 98 87.8644V78.1356C98 76.9561 97.0439 76 95.8644 76Z" fill="#39949E"/>
<path d="M41.1053 77H32.8947C31.8483 77 31 77.8954 31 79V87C31 88.1046 31.8483 89 32.8947 89H41.1053C42.1517 89 43 88.1046 43 87V79C43 77.8954 42.1517 77 41.1053 77Z" fill="#A4DCE3"/>
<path d="M59.1053 77H50.8947C49.8483 77 49 77.8954 49 79V87C49 88.1046 49.8483 89 50.8947 89H59.1053C60.1517 89 61 88.1046 61 87V79C61 77.8954 60.1517 77 59.1053 77Z" fill="#A4DCE3"/>
<path d="M77.1053 77H68.8947C67.8483 77 67 77.8954 67 79V87C67 88.1046 67.8483 89 68.8947 89H77.1053C78.1517 89 79 88.1046 79 87V79C79 77.8954 78.1517 77 77.1053 77Z" fill="#A4DCE3"/>
<path d="M95.1053 77H86.8947C85.8483 77 85 77.8954 85 79V87C85 88.1046 85.8483 89 86.8947 89H95.1053C96.1517 89 97 88.1046 97 87V79C97 77.8954 96.1517 77 95.1053 77Z" fill="#A4DCE3"/>
</svg>
