<svg width="128" height="128" viewBox="0 0 128 128" fill="none" xmlns="http://www.w3.org/2000/svg">
<path d="M112 27H16C11.5817 27 8 30.5817 8 35V107C8 111.418 11.5817 115 16 115H112C116.418 115 120 111.418 120 107V35C120 30.5817 116.418 27 112 27Z" fill="#6F6F6F"/>
<path d="M111.5 28H16.5C12.3579 28 9 31.3579 9 35.5V103.5C9 107.642 12.3579 111 16.5 111H111.5C115.642 111 119 107.642 119 103.5V35.5C119 31.3579 115.642 28 111.5 28Z" fill="#DEDEDE"/>
<path d="M114 32H14C13.4477 32 13 32.4477 13 33V100C13 100.552 13.4477 101 14 101H114C114.552 101 115 100.552 115 100V33C115 32.4477 114.552 32 114 32Z" fill="#48B9C7"/>
<path d="M53.8737 78H92.1263C94.2657 78 96 76.2848 96 74.169V47.831C96 45.7152 94.2657 44 92.1263 44H53.8737C51.7343 44 50 45.7152 50 47.831V74.169C50 76.2848 51.7343 78 53.8737 78Z" fill="#3A95A0"/>
<path d="M53.8737 76H92.1263C94.2657 76 96 74.3145 96 72.2353V47.7647C96 45.6855 94.2657 44 92.1263 44H53.8737C51.7343 44 50 45.6855 50 47.7647V72.2353C50 74.3145 51.7343 76 53.8737 76Z" fill="#A4DCE3"/>
<path d="M74.1263 56C76.2657 56 78 57.7152 78 59.831L77.9999 86.169C77.9999 88.2848 76.2656 90 74.1262 90H35.8737C33.7343 90 32 88.2848 32 86.169V59.831C32 57.7152 33.7343 56 35.8737 56H74.1263Z" fill="#3A95A0"/>
<path d="M74.1263 56C76.2657 56 78 57.6855 78 59.7647V84.2353C78 86.3145 76.2657 88 74.1263 88H35.8737C33.7343 88 32 86.3145 32 84.2353V59.7647C32 57.6855 33.7343 56 35.8737 56H74.1263Z" fill="white"/>
</svg>
