<svg width="128" height="128" viewBox="0 0 128 128" fill="none" xmlns="http://www.w3.org/2000/svg">
<path d="M112 27H16C11.5817 27 8 30.5817 8 35V107C8 111.418 11.5817 115 16 115H112C116.418 115 120 111.418 120 107V35C120 30.5817 116.418 27 112 27Z" fill="#6F6F6F"/>
<path d="M111.5 28H16.5C12.3579 28 9 31.3579 9 35.5V103.5C9 107.642 12.3579 111 16.5 111H111.5C115.642 111 119 107.642 119 103.5V35.5C119 31.3579 115.642 28 111.5 28Z" fill="#DEDEDE"/>
<path d="M114 32H14C13.4477 32 13 32.4477 13 33V100C13 100.552 13.4477 101 14 101H114C114.552 101 115 100.552 115 100V33C115 32.4477 114.552 32 114 32Z" fill="#48B9C7"/>
<path d="M15 99L112 37V99H15Z" fill="#39949E"/>
<path d="M15 98L112 36V98H15Z" fill="white"/>
</svg>
