<svg xmlns="http://www.w3.org/2000/svg" xmlns:xlink="http://www.w3.org/1999/xlink" width="16" height="16" viewBox="0 0 16 16">
  <defs>
    <polygon id="adwaita---appearance-icon---16x16-v1-a" points="0 .005 16 .005 16 12.006 0 12.006"/>
    <polygon id="adwaita---appearance-icon---16x16-v1-c" points="0 15.995 16 15.995 16 1 0 1"/>
  </defs>
  <g fill="none" fill-rule="evenodd">
    <path fill="#333" d="M9.998,8.0029 C9.445,8.0029 8.998,7.5549 8.998,7.0029 C8.998,6.4509 9.445,6.0029 9.998,6.0029 C10.55,6.0029 10.998,6.4509 10.998,7.0029 C10.998,7.5549 10.55,8.0029 9.998,8.0029 M9.991,5.0019 C8.587,5.0019 7.176,6.1009 6.321,6.9999 C7.128,7.8409 8.55,8.9869 9.991,8.9869 C11.545,8.9869 12.97,7.7419 13.68,6.9999 C12.963,6.2379 11.518,5.0019 9.991,5.0019"/>
    <g transform="translate(0 .995)">
      <mask id="adwaita---appearance-icon---16x16-v1-b" fill="#fff">
        <use xlink:href="#adwaita---appearance-icon---16x16-v1-a"/>
      </mask>
      <path fill="#333" d="M9.9912,8.9931 C7.2362,8.9931 5.0022,6.0061 5.00319966,6.0061 C5.0042,6.0061 7.2362,3.0071 9.9912,3.0071 C12.7462,3.0071 14.9792,5.9461 14.9792,6.0271 C14.9792,6.0541 12.7462,8.9931 9.9912,8.9931 L9.9912,8.9931 Z M0.9972,4.0061 L2.9972,4.0061 L2.9972,2.0061 L0.9972,2.0061 L0.9972,4.0061 Z M0.9972,7.0041 L2.9972,7.0041 L2.9972,5.0041 L0.9972,5.0041 L0.9972,7.0041 Z M0.9972,10.0061 L2.9972,10.0061 L2.9972,8.0061 L0.9972,8.0061 L0.9972,10.0061 Z M14.3832,0.0051 L1.6162,0.0051 C0.7272,0.0051 0.0002,0.7331 0.0002,1.6221 L0.0002,10.3891 C0.0002,11.2771 0.7272,12.0061 1.6162,12.0061 L14.3832,12.0061 C15.2722,12.0061 16.0002,11.2771 16.0002,10.3891 L16.0002,1.6221 C16.0002,0.7331 15.2722,0.0051 14.3832,0.0051 L14.3832,0.0051 Z" mask="url(#adwaita---appearance-icon---16x16-v1-b)"/>
    </g>
    <mask id="adwaita---appearance-icon---16x16-v1-d" fill="#fff">
      <use xlink:href="#adwaita---appearance-icon---16x16-v1-c"/>
    </mask>
    <polygon fill="#333" points="3.988 15.995 11.988 15.995 11.988 14.995 3.988 14.995" mask="url(#adwaita---appearance-icon---16x16-v1-d)"/>
    <polygon fill="#333" points="5.998 15.003 9.998 15.003 9.998 13.003 5.998 13.003" mask="url(#adwaita---appearance-icon---16x16-v1-d)"/>
  </g>
</svg>
