<svg width="24" height="24" viewBox="0 0 24 24" fill="none" xmlns="http://www.w3.org/2000/svg">
<path d="M22 2H2C0.89543 2 0 2.89543 0 4V20C0 21.1046 0.89543 22 2 22H22C23.1046 22 24 21.1046 24 20V4C24 2.89543 23.1046 2 22 2Z" fill="#6F6F6F"/>
<path d="M21.5 3H2.5C1.67157 3 1 3.67157 1 4.5V19.5C1 20.3284 1.67157 21 2.5 21H21.5C22.3284 21 23 20.3284 23 19.5V4.5C23 3.67157 22.3284 3 21.5 3Z" fill="#DEDEDE"/>
<path d="M22 4H2V19H22V4Z" fill="#48B9C7"/>
<path d="M3 18L21 7V18H3Z" fill="#39949E"/>
<path d="M3 17L21 6V17H3Z" fill="white"/>
</svg>
