<svg width="24" height="24" viewBox="0 0 24 24" fill="none" xmlns="http://www.w3.org/2000/svg">
<path d="M22 2H2C0.89543 2 0 2.89543 0 4V20C0 21.1046 0.89543 22 2 22H22C23.1046 22 24 21.1046 24 20V4C24 2.89543 23.1046 2 22 2Z" fill="#6F6F6F"/>
<path d="M21.5 3H2.5C1.67157 3 1 3.67157 1 4.5V19.5C1 20.3284 1.67157 21 2.5 21H21.5C22.3284 21 23 20.3284 23 19.5V4.5C23 3.67157 22.3284 3 21.5 3Z" fill="#DEDEDE"/>
<path d="M22 4H2V19H22V4Z" fill="#48B9C7"/>
<path d="M9.01053 15H18.9895C19.5476 15 20 14.5786 20 14.0588V7.94118C20 7.42138 19.5476 7 18.9895 7H9.01053C8.45243 7 8 7.42138 8 7.94118V14.0588C8 14.5786 8.45243 15 9.01053 15Z" fill="#A4DCE3"/>
<path d="M14.9895 9C15.5476 9 16 9.42138 16 9.94118V16.0588C16 16.5786 15.5476 17 14.9895 17H5.01053C4.45243 17 4 16.5786 4 16.0588V9.94118C4 9.42138 4.45243 9 5.01053 9H14.9895Z" fill="white"/>
</svg>
