<svg width="32" height="32" viewBox="0 0 32 32" fill="none" xmlns="http://www.w3.org/2000/svg">
<path d="M28 7H4C2.89543 7 2 7.89543 2 9V27C2 28.1046 2.89543 29 4 29H28C29.1046 29 30 28.1046 30 27V9C30 7.89543 29.1046 7 28 7Z" fill="#6F6F6F"/>
<path d="M27.5 8H4.5C3.67157 8 3 8.67157 3 9.5V25.5C3 26.3284 3.67157 27 4.5 27H27.5C28.3284 27 29 26.3284 29 25.5V9.5C29 8.67157 28.3284 8 27.5 8Z" fill="#DEDEDE"/>
<path d="M27 10H5V24H27V10Z" fill="#48B9C7"/>
<path d="M13.0105 20H22.9895C23.5476 20 24 19.5786 24 19.0588V12.9412C24 12.4214 23.5476 12 22.9895 12H13.0105C12.4524 12 12 12.4214 12 12.9412V19.0588C12 19.5786 12.4524 20 13.0105 20Z" fill="#A4DCE3"/>
<path d="M18.9895 14C19.5476 14 20 14.4214 20 14.9412V21.0588C20 21.5786 19.5476 22 18.9895 22H9.01053C8.45243 22 8 21.5786 8 21.0588V14.9412C8 14.4214 8.45243 14 9.01053 14H18.9895Z" fill="white"/>
</svg>
