<svg width="32" height="32" viewBox="0 0 32 32" fill="none" xmlns="http://www.w3.org/2000/svg">
<path d="M28 7H4C2.89543 7 2 7.89543 2 9V27C2 28.1046 2.89543 29 4 29H28C29.1046 29 30 28.1046 30 27V9C30 7.89543 29.1046 7 28 7Z" fill="#6F6F6F"/>
<path d="M27.5 8H4.5C3.67157 8 3 8.67157 3 9.5V25.5C3 26.3284 3.67157 27 4.5 27H27.5C28.3284 27 29 26.3284 29 25.5V9.5C29 8.67157 28.3284 8 27.5 8Z" fill="#DEDEDE"/>
<path d="M27 10H5V24H27V10Z" fill="#48B9C7"/>
<path d="M24.7578 18H7.24224C6.49689 18 6 18.4444 6 19.1111V21.8889C6 22.5556 6.49689 23 7.24224 23H24.7578C25.5031 23 26 22.5556 26 21.8889V19.1111C26 18.4444 25.5031 18 24.7578 18Z" fill="white"/>
<path d="M9.52632 19H7.47368C7.21208 19 7 19.2239 7 19.5V21.5C7 21.7761 7.21208 22 7.47368 22H9.52632C9.78792 22 10 21.7761 10 21.5V19.5C10 19.2239 9.78792 19 9.52632 19Z" fill="#A4DCE3"/>
<path d="M14.5263 19H12.4737C12.2121 19 12 19.2239 12 19.5V21.5C12 21.7761 12.2121 22 12.4737 22H14.5263C14.7879 22 15 21.7761 15 21.5V19.5C15 19.2239 14.7879 19 14.5263 19Z" fill="#A4DCE3"/>
<path d="M19.5263 19H17.4737C17.2121 19 17 19.2239 17 19.5V21.5C17 21.7761 17.2121 22 17.4737 22H19.5263C19.7879 22 20 21.7761 20 21.5V19.5C20 19.2239 19.7879 19 19.5263 19Z" fill="#A4DCE3"/>
<path d="M24.5263 19H22.4737C22.2121 19 22 19.2239 22 19.5V21.5C22 21.7761 22.2121 22 22.4737 22H24.5263C24.7879 22 25 21.7761 25 21.5V19.5C25 19.2239 24.7879 19 24.5263 19Z" fill="#A4DCE3"/>
</svg>
