<svg width="32" height="32" viewBox="0 0 32 32" fill="none" xmlns="http://www.w3.org/2000/svg">
<path d="M28 7H4C2.89543 7 2 7.89543 2 9V27C2 28.1046 2.89543 29 4 29H28C29.1046 29 30 28.1046 30 27V9C30 7.89543 29.1046 7 28 7Z" fill="#6F6F6F"/>
<path d="M27.5 8H4.5C3.67157 8 3 8.67157 3 9.5V25.5C3 26.3284 3.67157 27 4.5 27H27.5C28.3284 27 29 26.3284 29 25.5V9.5C29 8.67157 28.3284 8 27.5 8Z" fill="#DEDEDE"/>
<path d="M27 10H5V24H27V10Z" fill="#48B9C7"/>
<path d="M7 23L25 13V23H7Z" fill="#39949E"/>
<path d="M7 22L25 12V22H7Z" fill="white"/>
</svg>
