<svg width="256" height="256" viewBox="0 0 256 256" fill="none" xmlns="http://www.w3.org/2000/svg">
<path d="M224 56H32C17 56 16 60 16 69.6039V221C16 228 17 232 27.9999 232H224C239 232 240 228 240 218.396V69.6039C240 60 239 56 224 56Z" fill="#6F6F6F"/>
<path d="M223.143 57H32.8572C17.9911 57 17 60.8864 17 70.2174V217.312C17 224.114 17.9911 228 28.8928 228H223.143C238.009 228 239 224.114 239 214.783V70.2174C239 60.8864 238.009 57 223.143 57Z" fill="#DEDEDE"/>
<path d="M24 207V64H232V207H24Z" fill="#48B9C7"/>
<path d="M108 158H187C191.418 158 195 154.418 195 150V95C195 90.5817 191.418 87 187 87H108C103.582 87 100 90.5817 100 95V150C100 154.418 103.582 158 108 158Z" fill="#3A95A0"/>
<path d="M108 155H187C191.418 155 195 151.418 195 147V95C195 90.5817 191.418 87 187 87H108C103.582 87 100 90.5817 100 95V147C100 151.418 103.582 155 108 155Z" fill="#A4DCE3"/>
<path d="M149 112C153.418 112 157 115.582 157 120L157 175C157 179.418 153.418 183 149 183H70C65.5817 183 62 179.418 62 175V120C62 115.582 65.5817 112 70 112H149Z" fill="#3A95A0"/>
<path d="M149 112C153.418 112 157 115.582 157 120V172C157 176.418 153.418 180 149 180H70C65.5817 180 62 176.418 62 172V120C62 115.582 65.5817 112 70 112H149Z" fill="white"/>
</svg>
