<svg width="256" height="256" viewBox="0 0 256 256" fill="none" xmlns="http://www.w3.org/2000/svg">
<path d="M224 56H32C17 56 16 60 16 69.6039V221C16 228 17 232 27.9999 232H224C239 232 240 228 240 218.396V69.6039C240 60 239 56 224 56Z" fill="#6F6F6F"/>
<path d="M223.143 57H32.8572C17.9911 57 17 60.8864 17 70.2174V217.312C17 224.114 17.9911 228 28.8928 228H223.143C238.009 228 239 224.114 239 214.783V70.2174C239 60.8864 238.009 57 223.143 57Z" fill="#DEDEDE"/>
<path d="M24 207V64H232V207H24Z" fill="#48B9C7"/>
<path d="M30.0004 201L226 79V201H30.0004Z" fill="#39949E"/>
<path d="M30 199L226 77V199H30Z" fill="white"/>
</svg>
