<svg width="256" height="256" viewBox="0 0 256 256" fill="none" xmlns="http://www.w3.org/2000/svg">
<path d="M224 56H32C17 56 16 60 16 69.6039V221C16 228 17 232 27.9999 232H224C239 232 240 228 240 218.396V69.6039C240 60 239 56 224 56Z" fill="#6F6F6F"/>
<path d="M223.143 57H32.8572C17.9911 57 17 60.8864 17 70.2174V217.312C17 224.114 17.9911 228 28.8928 228H223.143C238.009 228 239 224.114 239 214.783V70.2174C239 60.8864 238.009 57 223.143 57Z" fill="#DEDEDE"/>
<path d="M24 207V64H232V207H24Z" fill="#48B9C7"/>
<path d="M198 150H57C51 150 47 154 47 160V185C47 191 51 195 57 195H198C204 195 208 191 208 185V160C208 154 204 150 198 150Z" fill="#39949E"/>
<path d="M198 147H57C51 147 47 151 47 157V182C47 188 51 192 57 192H198C204 192 208 188 208 182V157C208 151 204 147 198 147Z" fill="white"/>
<path d="M79.5763 155H59.4237C56.9806 155 55 156.981 55 159.424V179.576C55 182.019 56.9806 184 59.4237 184H79.5763C82.0194 184 84 182.019 84 179.576V159.424C84 156.981 82.0194 155 79.5763 155Z" fill="#39949E"/>
<path d="M117.576 155H97.4237C94.9806 155 93 156.981 93 159.424V179.576C93 182.019 94.9806 184 97.4237 184H117.576C120.019 184 122 182.019 122 179.576V159.424C122 156.981 120.019 155 117.576 155Z" fill="#39949E"/>
<path d="M156.576 155H136.424C133.981 155 132 156.981 132 159.424V179.576C132 182.019 133.981 184 136.424 184H156.576C159.019 184 161 182.019 161 179.576V159.424C161 156.981 159.019 155 156.576 155Z" fill="#39949E"/>
<path d="M195.576 155H175.424C172.981 155 171 156.981 171 159.424V179.576C171 182.019 172.981 184 175.424 184H195.576C198.019 184 200 182.019 200 179.576V159.424C200 156.981 198.019 155 195.576 155Z" fill="#39949E"/>
<path d="M78.7368 156H60.2632C57.9087 156 56 157.865 56 160.167V176.833C56 179.135 57.9087 181 60.2632 181H78.7368C81.0913 181 83 179.135 83 176.833V160.167C83 157.865 81.0913 156 78.7368 156Z" fill="#A4DCE3"/>
<path d="M116.737 156H98.2632C95.9087 156 94 157.865 94 160.167V176.833C94 179.135 95.9087 181 98.2632 181H116.737C119.091 181 121 179.135 121 176.833V160.167C121 157.865 119.091 156 116.737 156Z" fill="#A4DCE3"/>
<path d="M155.737 156H137.263C134.909 156 133 157.865 133 160.167V176.833C133 179.135 134.909 181 137.263 181H155.737C158.091 181 160 179.135 160 176.833V160.167C160 157.865 158.091 156 155.737 156Z" fill="#A4DCE3"/>
<path d="M194.737 156H176.263C173.909 156 172 157.865 172 160.167V176.833C172 179.135 173.909 181 176.263 181H194.737C197.091 181 199 179.135 199 176.833V160.167C199 157.865 197.091 156 194.737 156Z" fill="#A4DCE3"/>
</svg>
