<svg width="48" height="48" viewBox="0 0 48 48" fill="none" xmlns="http://www.w3.org/2000/svg">
<path d="M42 11H6C4.34315 11 3 12.3431 3 14V40C3 41.6569 4.34315 43 6 43H42C43.6569 43 45 41.6569 45 40V14C45 12.3431 43.6569 11 42 11Z" fill="#6F6F6F"/>
<path d="M41.5 12H6.5C5.11929 12 4 13.1193 4 14.5V37.5C4 38.8807 5.11929 40 6.5 40H41.5C42.8807 40 44 38.8807 44 37.5V14.5C44 13.1193 42.8807 12 41.5 12Z" fill="#DEDEDE"/>
<path d="M42 14H6V36H42V14Z" fill="#48B9C7"/>
<path d="M8 35L40 17V35H8Z" fill="#39949E"/>
<path d="M8 34L40 16V34H8Z" fill="white"/>
</svg>
