<svg width="48" height="48" viewBox="0 0 48 48" fill="none" xmlns="http://www.w3.org/2000/svg">
<path d="M42 11H6C4.34315 11 3 12.3431 3 14V40C3 41.6569 4.34315 43 6 43H42C43.6569 43 45 41.6569 45 40V14C45 12.3431 43.6569 11 42 11Z" fill="#6F6F6F"/>
<path d="M41.5 12H6.5C5.11929 12 4 13.1193 4 14.5V37.5C4 38.8807 5.11929 40 6.5 40H41.5C42.8807 40 44 38.8807 44 37.5V14.5C44 13.1193 42.8807 12 41.5 12Z" fill="#DEDEDE"/>
<path d="M42 14H6V36H42V14Z" fill="#48B9C7"/>
<path d="M38.0124 26H9.98758C8.79503 26 8 26.7111 8 27.7778V32.2222C8 33.2889 8.79503 34 9.98758 34H38.0124C39.205 34 40 33.2889 40 32.2222V27.7778C40 26.7111 39.205 26 38.0124 26Z" fill="#39949E"/>
<path d="M38.0124 25H9.98758C8.79503 25 8 25.7111 8 26.7778V31.2222C8 32.2889 8.79503 33 9.98758 33H38.0124C39.205 33 40 32.2889 40 31.2222V26.7778C40 25.7111 39.205 25 38.0124 25Z" fill="white"/>
<path d="M14.0526 26H9.94737C9.42415 26 9 26.4477 9 27V31C9 31.5523 9.42415 32 9.94737 32H14.0526C14.5758 32 15 31.5523 15 31V27C15 26.4477 14.5758 26 14.0526 26Z" fill="#A4DCE3"/>
<path d="M22.0526 26H17.9474C17.4242 26 17 26.4477 17 27V31C17 31.5523 17.4242 32 17.9474 32H22.0526C22.5758 32 23 31.5523 23 31V27C23 26.4477 22.5758 26 22.0526 26Z" fill="#A4DCE3"/>
<path d="M30.0526 26H25.9474C25.4242 26 25 26.4477 25 27V31C25 31.5523 25.4242 32 25.9474 32H30.0526C30.5758 32 31 31.5523 31 31V27C31 26.4477 30.5758 26 30.0526 26Z" fill="#A4DCE3"/>
<path d="M38.0526 26H33.9474C33.4242 26 33 26.4477 33 27V31C33 31.5523 33.4242 32 33.9474 32H38.0526C38.5758 32 39 31.5523 39 31V27C39 26.4477 38.5758 26 38.0526 26Z" fill="#A4DCE3"/>
</svg>
