<svg width="48" height="48" viewBox="0 0 48 48" fill="none" xmlns="http://www.w3.org/2000/svg">
<path d="M42 11H6C4.34315 11 3 12.3431 3 14V40C3 41.6569 4.34315 43 6 43H42C43.6569 43 45 41.6569 45 40V14C45 12.3431 43.6569 11 42 11Z" fill="#6F6F6F"/>
<path d="M41.5 12H6.5C5.11929 12 4 13.1193 4 14.5V37.5C4 38.8807 5.11929 40 6.5 40H41.5C42.8807 40 44 38.8807 44 37.5V14.5C44 13.1193 42.8807 12 41.5 12Z" fill="#DEDEDE"/>
<path d="M42 14H6V36H42V14Z" fill="#48B9C7"/>
<path d="M20.5158 29H35.4842C36.3214 29 37 28.3679 37 27.5882V18.4118C37 17.6321 36.3214 17 35.4842 17H20.5158C19.6786 17 19 17.6321 19 18.4118V27.5882C19 28.3679 19.6786 29 20.5158 29Z" fill="#A4DCE3"/>
<path d="M27.4842 21C28.3214 21 29 21.6321 29 22.4118V31.5882C29 32.3679 28.3214 33 27.4842 33H12.5158C11.6786 33 11 32.3679 11 31.5882V22.4118C11 21.6321 11.6786 21 12.5158 21H27.4842Z" fill="white"/>
</svg>
