<svg width="64" height="64" viewBox="0 0 64 64" fill="none" xmlns="http://www.w3.org/2000/svg">
<path d="M56 14H8C4.25 14 4 15 4 17.401V55.25C4 57 4.25 58 6.99998 58H56C59.75 58 60 57 60 54.599V17.401C60 15 59.75 14 56 14Z" fill="#6F6F6F"/>
<path d="M55.1429 15H8.85714C5.24107 15 5 15.9318 5 18.1691V53.4375C5 55.0682 5.24107 56 7.89284 56H55.1429C58.7589 56 59 55.0682 59 52.8309V18.1691C59 15.9318 58.7589 15 55.1429 15Z" fill="#DEDEDE"/>
<path d="M7 51V17H57V51H7Z" fill="#48B9C7"/>
<path d="M26.2737 40H48.7263C49.982 40 51 38.9911 51 37.7465V22.2535C51 21.0089 49.982 20 48.7263 20H26.2737C25.018 20 24 21.0089 24 22.2535V37.7465C24 38.9911 25.018 40 26.2737 40Z" fill="#3A95A0"/>
<path d="M26.2737 39H48.7263C49.982 39 51 37.9992 51 36.7647V22.2353C51 21.0008 49.982 20 48.7263 20H26.2737C25.018 20 24 21.0008 24 22.2353V36.7647C24 37.9992 25.018 39 26.2737 39Z" fill="#A4DCE3"/>
<path d="M37.7263 27C38.982 27 40 28.0089 40 29.2535L40 44.7465C40 45.9911 38.982 47 37.7263 47H15.2737C14.018 47 13 45.9911 13 44.7465V29.2535C13 28.0089 14.018 27 15.2737 27H37.7263Z" fill="#3A95A0"/>
<path d="M37.7263 27C38.982 27 40 28.0008 40 29.2353V43.7647C40 44.9992 38.982 46 37.7263 46H15.2737C14.018 46 13 44.9992 13 43.7647V29.2353C13 28.0008 14.018 27 15.2737 27H37.7263Z" fill="white"/>
</svg>
