<svg width="64" height="64" viewBox="0 0 64 64" fill="none" xmlns="http://www.w3.org/2000/svg">
<path d="M56 14H8C4.25 14 4 15 4 17.401V55.25C4 57 4.25 58 6.99998 58H56C59.75 58 60 57 60 54.599V17.401C60 15 59.75 14 56 14Z" fill="#6F6F6F"/>
<path d="M55.1429 15H8.85714C5.24107 15 5 15.9318 5 18.1691V53.4375C5 55.0682 5.24107 56 7.89284 56H55.1429C58.7589 56 59 55.0682 59 52.8309V18.1691C59 15.9318 58.7589 15 55.1429 15Z" fill="#DEDEDE"/>
<path d="M7 51V17H57V51H7Z" fill="#48B9C7"/>
<path d="M51.2671 37H12.7329C11.0932 37 10 38.0667 10 39.6667V46.3333C10 47.9333 11.0932 49 12.7329 49H51.2671C52.9068 49 54 47.9333 54 46.3333V39.6667C54 38.0667 52.9068 37 51.2671 37Z" fill="#39949E"/>
<path d="M51.2671 36H12.7329C11.0932 36 10 37.0667 10 38.6667V45.3333C10 46.9333 11.0932 48 12.7329 48H51.2671C52.9068 48 54 46.9333 54 45.3333V38.6667C54 37.0667 52.9068 36 51.2671 36Z" fill="white"/>
<path d="M19.7368 38H14.2632C13.5655 38 13 38.597 13 39.3333V44.6667C13 45.403 13.5655 46 14.2632 46H19.7368C20.4345 46 21 45.403 21 44.6667V39.3333C21 38.597 20.4345 38 19.7368 38Z" fill="#A4DCE3"/>
<path d="M29.7368 38H24.2632C23.5655 38 23 38.597 23 39.3333V44.6667C23 45.403 23.5655 46 24.2632 46H29.7368C30.4345 46 31 45.403 31 44.6667V39.3333C31 38.597 30.4345 38 29.7368 38Z" fill="#A4DCE3"/>
<path d="M39.7368 38H34.2632C33.5655 38 33 38.597 33 39.3333V44.6667C33 45.403 33.5655 46 34.2632 46H39.7368C40.4345 46 41 45.403 41 44.6667V39.3333C41 38.597 40.4345 38 39.7368 38Z" fill="#A4DCE3"/>
<path d="M49.7368 38H44.2632C43.5655 38 43 38.597 43 39.3333V44.6667C43 45.403 43.5655 46 44.2632 46H49.7368C50.4345 46 51 45.403 51 44.6667V39.3333C51 38.597 50.4345 38 49.7368 38Z" fill="#A4DCE3"/>
</svg>
