<svg width="64" height="64" viewBox="0 0 64 64" fill="none" xmlns="http://www.w3.org/2000/svg">
<path d="M56 14H8C4.25 14 4 15 4 17.401V55.25C4 57 4.25 58 6.99998 58H56C59.75 58 60 57 60 54.599V17.401C60 15 59.75 14 56 14Z" fill="#6F6F6F"/>
<path d="M55.1429 15H8.85714C5.24107 15 5 15.9318 5 18.1691V53.4375C5 55.0682 5.24107 56 7.89284 56H55.1429C58.7589 56 59 55.0682 59 52.8309V18.1691C59 15.9318 58.7589 15 55.1429 15Z" fill="#DEDEDE"/>
<path d="M7 51V17H57V51H7Z" fill="#48B9C7"/>
<path d="M9 50L55 21V50H9Z" fill="#39949E"/>
<path d="M9 49L55 20V49H9Z" fill="white"/>
</svg>
