<svg width="16" height="16" viewBox="0 0 16 16" fill="none" xmlns="http://www.w3.org/2000/svg">
<path d="M14 2H2C0.89543 2 0 2.89543 0 4V12C0 13.1046 0.89543 14 2 14H14C15.1046 14 16 13.1046 16 12V4C16 2.89543 15.1046 2 14 2Z" fill="#6F6F6F"/>
<path d="M13.5 3H2.5C1.67157 3 1 3.67157 1 4.5V11.5C1 12.3284 1.67157 13 2.5 13H13.5C14.3284 13 15 12.3284 15 11.5V4.5C15 3.67157 14.3284 3 13.5 3Z" fill="#DEDEDE"/>
<path d="M14 4H2V12H14V4Z" fill="#48B9C7"/>
<path d="M12.3789 9H3.62112C3.24845 9 3 9.17778 3 9.44444V10.5556C3 10.8222 3.24845 11 3.62112 11H12.3789C12.7516 11 13 10.8222 13 10.5556V9.44444C13 9.17778 12.7516 9 12.3789 9Z" fill="white"/>
</svg>
