<svg width="16" height="16" viewBox="0 0 16 16" fill="none" xmlns="http://www.w3.org/2000/svg">
<path d="M14 2H2C0.89543 2 0 2.89543 0 4V12C0 13.1046 0.89543 14 2 14H14C15.1046 14 16 13.1046 16 12V4C16 2.89543 15.1046 2 14 2Z" fill="#6F6F6F"/>
<path d="M13.5 3H2.5C1.67157 3 1 3.67157 1 4.5V11.5C1 12.3284 1.67157 13 2.5 13H13.5C14.3284 13 15 12.3284 15 11.5V4.5C15 3.67157 14.3284 3 13.5 3Z" fill="#DEDEDE"/>
<path d="M14 4H2V12H14V4Z" fill="#48B9C7"/>
<path d="M6.58947 10H12.4105C12.7361 10 13 9.73664 13 9.41177V5.58824C13 5.26336 12.7361 5 12.4105 5H6.58947C6.26392 5 6 5.26336 6 5.58824V9.41177C6 9.73664 6.26392 10 6.58947 10Z" fill="#A4DCE3"/>
<path d="M9.41053 6C9.73608 6 10 6.26336 10 6.58824V10.4118C10 10.7366 9.73608 11 9.41053 11H3.58947C3.26392 11 3 10.7366 3 10.4118V6.58824C3 6.26336 3.26392 6 3.58947 6H9.41053Z" fill="white"/>
</svg>
